{"title":"Rich Gang Ft. Lil Wayne, Birdman, Mack Maine, Nicki Minaj &amp; ","uid":8832497,"size":172723989,"categoryP":"video","categoryS":"music_videos","magnet":"?xt=urn:btih:a02e06e1e1d1cf7b92072cf06e47d3ab874d91fa&amp;dn=Rich+Gang+Ft.+Lil+Wayne%2C+Birdman%2C+Mack+Maine%2C+Nicki+Minaj+%26amp%3B+&amp;tr=udp%3A%2F%2Ftracker.openbittorrent.com%3A80&amp;tr=udp%3A%2F%2Fopen.demonii.com%3A1337&amp;tr=udp%3A%2F%2Ftracker.coppersurfer.tk%3A6969&amp;tr=udp%3A%2F%2Fexodus.desync.com%3A6969","seeders":4,"leechers":0,"uploader":"Sbyky","files":-1,"time":1377024318,"description":"[IMG]http://yuq.me/users/18/139/y2xHmXB8q4.png[/IMG]\n\nGeneral\nComplete name                            : Rich Gang Ft. Lil Wayne, Birdman, Mack Maine, Nicki Minaj &amp; Future - Tapout [Explicit] 1080p [Sbyky].mp4\nFormat                                   : MPEG-4\nFormat profile                           : Base Media / Version 2\nCodec ID                                 : mp42\nFile size                                : 165 MiB\nDuration                                 : 4mn 54s\nOverall bit rate mode                    : Variable\nOverall bit rate                         : 4 694 Kbps\nEncoded date                             : UTC 2013-05-03 21:56:02\nTagged date                              : UTC 2013-05-03 21:56:02\n\nVideo\nID                                       : 1\nFormat                                   : AVC\nFormat/Info                              : Advanced Video Codec\nFormat profile                           : &lt;a class=&quot;__cf_email__&quot; href=&quot;/cdn-cgi/l/email-protection&quot; data-cfemail=&quot;fab2939d92bab6ced4ca&quot;&gt;[email&amp;#160;protected]&lt;/a&gt;&lt;script cf-hash='f9e31' type=&quot;text/javascript&quot;&gt;\n/* &lt;![CDATA[ */!function(){try{var t=&quot;currentScript&quot;in document?document.currentScript:function(){for(var t=document.getElementsByTagName(&quot;script&quot;),e=t.length;e--;)if(t[e].getAttribute(&quot;cf-hash&quot;))return t[e]}();if(t&amp;&amp;t.previousSibling){var e,r,n,i,c=t.previousSibling,a=c.getAttribute(&quot;data-cfemail&quot;);if(a){for(e=&quot;&quot;,r=parseInt(a.substr(0,2),16),n=2;a.length-n;n+=2)i=parseInt(a.substr(n,2),16)^r,e+=String.fromCharCode(i);e=document.createTextNode(e),c.parentNode.replaceChild(e,c)}}}catch(u){}}();/* ]]&gt; */&lt;/script&gt;\nFormat settings, CABAC                   : Yes\nFormat settings, ReFrames                : 1 frame\nCodec ID                                 : avc1\nCodec ID/Info                            : Advanced Video Coding\nDuration                                 : 4mn 54s\nBit rate                                 : 4 499 Kbps\nMaximum bit rate                         : 14.3 Mbps\nWidth                                    : 1 920 pixels\nHeight                                   : 1 080 pixels\nDisplay aspect ratio                     : 16:9\nFrame rate mode                          : Constant\nFrame rate                               : 23.976 fps\nColor space                              : YUV\nChroma subsampling                       : 4:2:0\nBit depth                                : 8 bits\nScan type                                : Progressive\nBits/(Pixel*Frame)                       : 0.091\nStream size                              : 158 MiB (96%)\nTagged date                              : UTC 2013-05-03 21:56:14\n\nAudio\nID                                       : 2\nFormat                                   : AAC\nFormat/Info                              : Advanced Audio Codec\nFormat profile                           : LC\nCodec ID                                 : 40\nDuration                                 : 4mn 54s\nBit rate mode                            : Variable\nBit rate                                 : 192 Kbps\nMaximum bit rate                         : 202 Kbps\nChannel(s)                               : 2 channels\nChannel positions                        : Front: L R\nSampling rate                            : 44.1 KHz\nCompression mode                         : Lossy\nStream size                              : 6.74 MiB (4%)\nTitle                                    : IsoMedia File Produced by Google, 5-11-2011\nEncoded date                             : UTC 2013-05-03 21:56:11\nTagged date                              : UTC 2013-05-03 21:56:14\n\nShared By Sbyky\n[IMG]http://yuq.me/users/18/139/0aq32UMZvX.gif[/IMG]\n[IMG]http://yuq.me/users/18/139/bQg62viaEG.gif[/IMG]","torrent":{"xt":"urn:btih:a02e06e1e1d1cf7b92072cf06e47d3ab874d91fa","amp;dn":"Rich+Gang+Ft.+Lil+Wayne%2C+Birdman%2C+Mack+Maine%2C+Nicki+Minaj+%26amp%3B+","amp;tr":["udp%3A%2F%2Ftracker.openbittorrent.com%3A80","udp%3A%2F%2Fopen.demonii.com%3A1337","udp%3A%2F%2Ftracker.coppersurfer.tk%3A6969","udp%3A%2F%2Fexodus.desync.com%3A6969"],"infoHash":"a02e06e1e1d1cf7b92072cf06e47d3ab874d91fa","infoHashBuffer":{"type":"Buffer","data":[160,46,6,225,225,209,207,123,146,7,44,240,110,71,211,171,135,77,145,250]},"announce":[],"urlList":[]}}